[Header]
FileType HTR
DataType HTRS
FileVersion 1
NumSegments 64
NumFrames 4
DataFrameRate 30
EulerRotationOrder ZYX
CalibrationUnits mm
RotationUnits Degrees
GlobalAxisofGravity Y
BoneLengthAxis Y
ScaleFactor 1.0
[SegmentNames&Hierarchy]
Hips	GLOBAL
Spine	Hips
Spine1	Spine
Spine2	Spine1
Neck	Spine2
Head	Neck
LeftEye	Head
RightEye	Head
LeftShoulder	Spine2
LeftArm	LeftShoulder
LeftForeArm	LeftArm
LeftHand	LeftForeArm
LeftHandThumb1	LeftHand
LeftHandThumb2	LeftHandThumb1
LeftHandThumb3	LeftHandThumb2
LeftHandThumb4	LeftHandThumb3
LeftHandIndex1	LeftHand
LeftHandIndex2	LeftHandIndex1
LeftHandIndex3	LeftHandIndex2
LeftHandIndex4	LeftHandIndex3
LeftHandMiddle1	LeftHand
LeftHandMiddle2	LeftHandMiddle1
LeftHandMiddle3	LeftHandMiddle2
LeftHandMiddle4	LeftHandMiddle3
LeftHandRing1	LeftHand
LeftHandRing2	LeftHandRing1
LeftHandRing3	LeftHandRing2
LeftHandRing4	LeftHandRing3
LeftHandPinky1	LeftHand
LeftHandPinky2	LeftHandPinky1
LeftHandPinky3	LeftHandPinky2
LeftHandPinky4	LeftHandPinky3
RightShoulder	Spine2
RightArm	RightShoulder
RightForeArm	RightArm
RightHand	RightForeArm
RightHandPinky1	RightHand
RightHandPinky2	RightHandPinky1
RightHandPinky3	RightHandPinky2
RightHandPinky4	RightHandPinky3
RightHandRing1	RightHand
RightHandRing2	RightHandRing1
RightHandRing3	RightHandRing2
RightHandRing4	RightHandRing3
RightHandMiddle1	RightHand
RightHandMiddle2	RightHandMiddle1
RightHandMiddle3	RightHandMiddle2
RightHandMiddle4	RightHandMiddle3
RightHandIndex1	RightHand
RightHandIndex2	RightHandIndex1
RightHandIndex3	RightHandIndex2
RightHandIndex4	RightHandIndex3
RightHandThumb1	RightHand
RightHandThumb2	RightHandThumb1
RightHandThumb3	RightHandThumb2
RightHandThumb4	RightHandThumb3
LeftUpLeg	Hips
LeftLeg	LeftUpLeg
LeftFoot	LeftLeg
LeftToeBase	LeftFoot
RightUpLeg	Hips
RightLeg	RightUpLeg
RightFoot	RightLeg
RightToeBase	RightFoot
[BasePosition]
Hips	0	0	0	0	0	0	1
Spine	0	0	0	0	0	0	1
Spine1	0	0	0	0	0	0	1
Spine2	0	0	0	0	0	0	1
Neck	0	0	0	0	0	0	1
Head	0	0	0	0	0	0	1
LeftEye	0	0	0	0	0	0	1
RightEye	0	0	0	0	0	0	1
LeftShoulder	0	0	0	0	0	0	1
LeftArm	0	0	0	0	0	0	1
LeftForeArm	0	0	0	0	0	0	1
LeftHand	0	0	0	0	0	0	1
LeftHandThumb1	0	0	0	0	0	0	1
LeftHandThumb2	0	0	0	0	0	0	1
LeftHandThumb3	0	0	0	0	0	0	1
LeftHandThumb4	0	0	0	0	0	0	1
LeftHandIndex1	0	0	0	0	0	0	1
LeftHandIndex2	0	0	0	0	0	0	1
LeftHandIndex3	0	0	0	0	0	0	1
LeftHandIndex4	0	0	0	0	0	0	1
LeftHandMiddle1	0	0	0	0	0	0	1
LeftHandMiddle2	0	0	0	0	0	0	1
LeftHandMiddle3	0	0	0	0	0	0	1
LeftHandMiddle4	0	0	0	0	0	0	1
LeftHandRing1	0	0	0	0	0	0	1
LeftHandRing2	0	0	0	0	0	0	1
LeftHandRing3	0	0	0	0	0	0	1
LeftHandRing4	0	0	0	0	0	0	1
LeftHandPinky1	0	0	0	0	0	0	1
LeftHandPinky2	0	0	0	0	0	0	1
LeftHandPinky3	0	0	0	0	0	0	1
LeftHandPinky4	0	0	0	0	0	0	1
RightShoulder	0	0	0	0	0	0	1
RightArm	0	0	0	0	0	0	1
RightForeArm	0	0	0	0	0	0	1
RightHand	0	0	0	0	0	0	1
RightHandPinky1	0	0	0	0	0	0	1
RightHandPinky2	0	0	0	0	0	0	1
RightHandPinky3	0	0	0	0	0	0	1
RightHandPinky4	0	0	0	0	0	0	1
RightHandRing1	0	0	0	0	0	0	1
RightHandRing2	0	0	0	0	0	0	1
RightHandRing3	0	0	0	0	0	0	1
RightHandRing4	0	0	0	0	0	0	1
RightHandMiddle1	0	0	0	0	0	0	1
RightHandMiddle2	0	0	0	0	0	0	1
RightHandMiddle3	0	0	0	0	0	0	1
RightHandMiddle4	0	0	0	0	0	0	1
RightHandIndex1	0	0	0	0	0	0	1
RightHandIndex2	0	0	0	0	0	0	1
RightHandIndex3	0	0	0	0	0	0	1
RightHandIndex4	0	0	0	0	0	0	1
RightHandThumb1	0	0	0	0	0	0	1
RightHandThumb2	0	0	0	0	0	0	1
RightHandThumb3	0	0	0	0	0	0	1
RightHandThumb4	0	0	0	0	0	0	1
LeftUpLeg	0	0	0	0	0	0	1
LeftLeg	0	0	0	0	0	0	1
LeftFoot	0	0	0	0	0	0	1
LeftToeBase	0	0	0	0	0	0	1
RightUpLeg	0	0	0	0	0	0	1
RightLeg	0	0	0	0	0	0	1
RightFoot	0	0	0	0	0	0	1
RightToeBase	0	0	0	0	0	0	1
[Hips]
39 	-23.8797493	981.0012817	15.08531475	-17.30780792	4.548164368	-6.934226513	1.0
40 	-23.71745872	983.6066895	10.38675499	-16.80263329	4.129011154	-6.704985142	1.0
41 	-23.49977493	986.5643921	5.555819511	-16.2227478	3.703825235	-6.499700069	1.0
42 	-23.26608658	989.6345215	0.7406052947	-15.56801605	3.313478947	-6.322054863	1.0
[Spine]
39 	0	101.8159943	1.315000057	0.8568382859	2.368822336	1.175665498	1.0
40 	0	101.8159943	1.315000057	1.286020517	2.382378101	1.305673242	1.0
41 	0	101.8159943	1.315000057	1.717892766	2.387939215	1.445978642	1.0
42 	0	101.8159943	1.315000057	2.13324213	2.387418747	1.590755105	1.0
[Spine1]
39 	0	100.8349991	-10.00800037	0.2539247274	1.949352264	0.00585905835	1.0
40 	0	100.8349991	-10.00800037	0.4168121517	1.938729763	0.08474604785	1.0
41 	0	100.8349991	-10.00800037	0.5867137909	1.914973855	0.1739884764	1.0
42 	0	100.8349991	-10.00800037	0.7562836409	1.885098696	0.2695373893	1.0
[Spine2]
39 	0	91	-13.73399925	0.2439538389	1.963773727	-0.02555781975	1.0
40 	0	91	-13.73399925	0.4041812122	1.957587242	0.06018511578	1.0
41 	0	91	-13.73399925	0.5715225935	1.937310219	0.1561421305	1.0
42 	0	91	-13.73399925	0.7387436032	1.910468817	0.2580501437	1.0
[Neck]
39 	0	166.7169952	-25.16200066	7.380092144	-3.754233837	0.2678059936	1.0
40 	0	166.7169952	-25.16200066	7.067711353	-3.638149023	0.2882276773	1.0
41 	0	166.7169952	-25.16200066	6.716667175	-3.504504919	0.3593018353	1.0
42 	0	166.7169952	-25.16200066	6.344522476	-3.355988026	0.4804396927	1.0
[Head]
39 	0	96.17900085	16.84999847	-2.531929255	-12.37052059	2.761912107	1.0
40 	0	96.17900085	16.84999847	-3.382781506	-12.0760994	2.871304274	1.0
41 	0	96.17900085	16.84999847	-4.24574852	-11.69042587	2.994835615	1.0
42 	0	96.17900085	16.84999847	-5.098525047	-11.24475384	3.164164305	1.0
[LeftEye]
39 	30.6760006	64.09500122	92.83599854	0	0	0	1.0
40 	30.6760006	64.09500122	92.83599854	0	0	0	1.0
41 	30.6760006	64.09500122	92.83599854	0	0	0	1.0
42 	30.6760006	64.09500122	92.83599854	0	0	0	1.0
[RightEye]
39 	-30.6760006	64.09500122	92.83499908	0	0	0	1.0
40 	-30.6760006	64.09500122	92.83499908	0	0	0	1.0
41 	-30.6760006	64.09500122	92.83499908	0	0	0	1.0
42 	-30.6760006	64.09500122	92.83499908	0	0	0	1.0
[LeftShoulder]
39 	45.70400238	109.4599991	-26.28000069	3.740949869	-12.15600967	-12.89715862	1.0
40 	45.70400238	109.4599991	-26.28000069	3.777168036	-12.21775246	-13.05998325	1.0
41 	45.70400238	109.4599991	-26.28000069	3.823322296	-12.36870003	-13.13506126	1.0
42 	45.70400238	109.4599991	-26.28000069	3.878043652	-12.59108257	-13.14323616	1.0
[LeftArm]
39 	105.923996	-5.24600029	-22.32099915	-18.120121	-7.065871716	-56.17263412	1.0
40 	105.923996	-5.24600029	-22.32099915	-11.87343025	-6.487436295	-57.86322403	1.0
41 	105.923996	-5.24600029	-22.32099915	-5.700376511	-5.628665924	-59.86141205	1.0
42 	105.923996	-5.24600029	-22.32099915	0.2494320869	-4.711427212	-61.99069977	1.0
[LeftForeArm]
39 	278.414978	-0.0009999999311	0	-6.440329344e-06	-3.910321993e-06	-0.0002147490886	1.0
40 	278.414978	-0.0009999999311	0	-6.892997249e-07	-9.933079781e-08	-0.000207007819	1.0
41 	278.414978	-0.0009999999311	0	-3.643952368e-06	-7.040162018e-06	-0.0001995890343	1.0
42 	278.414978	-0.0009999999311	0	-2.441150173e-06	-0.1419578195	-0.0002108568879	1.0
[LeftHand]
39 	283.2879944	0	0	-53.28011322	-5.573577881	2.834979296	1.0
40 	283.2879944	0	0	-47.00876236	-4.911058903	-1.068351746	1.0
41 	283.2879944	0	0	-40.90102768	-4.009474754	-5.122979164	1.0
42 	283.2879944	0	0	-36.34634399	-2.955812454	-8.05610466	1.0
[LeftHandThumb1]
39 	24.6609993	-15.75	26.8239994	-7.383780479	-0.3383533061	7.581990242	1.0
40 	24.6609993	-15.75	26.8239994	-4.991468906	-1.267173409	5.716757774	1.0
41 	24.6609993	-15.75	26.8239994	-3.322901487	-2.13779974	4.254411221	1.0
42 	24.6609993	-15.75	26.8239994	-4.938438416	-1.058988333	6.068507195	1.0
[LeftHandThumb2]
39 	32.29800034	-18.64699936	18.64699936	19.91338348	22.34914207	17.8984108	1.0
40 	32.29800034	-18.64699936	18.64699936	19.92315483	21.97236252	18.81969643	1.0
41 	32.29800034	-18.64699936	18.64699936	19.92193413	21.86000443	19.07463455	1.0
42 	32.29800034	-18.64699936	18.64699936	19.91716385	22.17309952	18.3322525	1.0
[LeftHandThumb3]
39 	26.52600098	-15.31499958	15.31499958	-11.4009819	1.942038417	4.894887924	1.0
40 	26.52600098	-15.31499958	15.31499958	-11.56220341	2.314251423	5.106066227	1.0
41 	26.52600098	-15.31499958	15.31499958	-11.60284328	2.413669348	5.143674374	1.0
42 	26.52600098	-15.31499958	15.31499958	-11.54403305	2.231030703	5.188087463	1.0
[LeftHandThumb4]
39 	19.54599953	-11.28499985	11.28499985	0	0	0	1.0
40 	19.54599953	-11.28499985	11.28499985	0	0	0	1.0
41 	19.54599953	-11.28499985	11.28499985	0	0	0	1.0
42 	19.54599953	-11.28499985	11.28499985	0	0	0	1.0
[LeftHandIndex1]
39 	91.09299469	-5.170999527	22.60099792	0.5992026925	-1.436257124	-0.5658707619	1.0
40 	91.09299469	-5.170999527	22.60099792	0.4767629802	-1.618057132	-1.049559355	1.0
41 	91.09299469	-5.170999527	22.60099792	0.4197664559	-1.952777505	-0.612187326	1.0
42 	91.09299469	-5.170999527	22.60099792	0.340590179	-2.10397625	-1.235351443	1.0
[LeftHandIndex2]
39 	36.76399994	0	0	-0.2264146954	1.610854506	-16.00091362	1.0
40 	36.76399994	0	0	-0.2290683538	1.620147109	-16.09547234	1.0
41 	36.76399994	0	0	-0.2307856083	1.626053691	-16.15599442	1.0
42 	36.76399994	0	0	-0.2300789058	1.62358284	-16.13074875	1.0
[LeftHandIndex3]
39 	28.83100128	0	0	-0.03949586302	0.6782951951	-6.663836002	1.0
40 	28.83100128	0	0	-0.04060519487	0.6878385544	-6.758061886	1.0
41 	28.83100128	0	0	-0.04133991897	0.6938831806	-6.817885399	1.0
42 	28.83100128	0	0	-0.04102943838	0.691311121	-6.792478085	1.0
[LeftHandIndex4]
39 	23.92700005	0	0	0	0	0	1.0
40 	23.92700005	0	0	0	0	0	1.0
41 	23.92700005	0	0	0	0	0	1.0
42 	23.92700005	0	0	0	0	0	1.0
[LeftHandMiddle1]
39 	95.33399963	0	0	-0.5554801226	2.806078672	-12.00699139	1.0
40 	95.33399963	0	0	-0.5723006129	2.97832036	-12.27600384	1.0
41 	95.33399963	0	0	-0.5660701394	3.075919867	-12.1741581	1.0
42 	95.33399963	0	0	-0.6431269646	3.153454781	-13.39270592	1.0
[LeftHandMiddle2]
39 	36.98199844	0	0	-0.2618017793	1.729437828	-17.21480751	1.0
40 	36.98199844	0	0	-0.2640646994	1.736726761	-17.28970718	1.0
41 	36.98199844	0	0	-0.2654977739	1.741328001	-17.33699226	1.0
42 	36.98199844	0	0	-0.2668005526	1.745490789	-17.37977028	1.0
[LeftHandMiddle3]
39 	29.50900078	0	0	-0.2931986153	1.827654362	-18.22648239	1.0
40 	29.50900078	0	0	-0.2955829203	1.834894419	-18.30124664	1.0
41 	29.50900078	0	0	-0.2971076965	1.839462996	-18.34850121	1.0
42 	29.50900078	0	0	-0.2984777689	1.843598366	-18.39126205	1.0
[LeftHandMiddle4]
39 	28.3390007	0	0	0	0	0	1.0
40 	28.3390007	0	0	0	0	0	1.0
41 	28.3390007	0	0	0	0	0	1.0
42 	28.3390007	0	0	0	0	0	1.0
[LeftHandRing1]
39 	91.04499817	-0.4390000105	-18.65100098	-1.641640067	2.532302618	-26.94836235	1.0
40 	91.04499817	-0.4390000105	-18.65100098	-1.593755841	2.131929636	-26.38447189	1.0
41 	91.04499817	-0.4390000105	-18.65100098	-1.549717307	1.994426608	-25.85332489	1.0
42 	91.04499817	-0.4390000105	-18.65100098	-1.573809624	2.05586195	-26.14626694	1.0
[LeftHandRing2]
39 	31.54000092	0	0	-0.6269295812	2.632450104	-26.78660011	1.0
40 	31.54000092	0	0	-0.621792376	2.622292042	-26.67471886	1.0
41 	31.54000092	0	0	-0.6139853597	2.606700659	-26.50335693	1.0
42 	31.54000092	0	0	-0.6181231737	2.615030766	-26.59470749	1.0
[LeftHandRing3]
39 	29.37700081	0	0	-0.4977354407	2.359460831	-23.82061577	1.0
40 	29.37700081	0	0	-0.4942539632	2.351583242	-23.73605537	1.0
41 	29.37700081	0	0	-0.4876133502	2.336436987	-23.57375908	1.0
42 	29.37700081	0	0	-0.4912018776	2.344686985	-23.66208076	1.0
[LeftHandRing4]
39 	26.47500038	0	0	0	0	0	1.0
40 	26.47500038	0	0	0	0	0	1.0
41 	26.47500038	0	0	0	0	0	1.0
42 	26.47500038	0	0	0	0	0	1.0
[LeftHandPinky1]
39 	80.77799988	-4.887000084	-38.06099701	-2.171470165	4.712349892	-30.3672905	1.0
40 	80.77799988	-4.887000084	-38.06099701	-2.166659355	4.538952351	-29.94141579	1.0
41 	80.77799988	-4.887000084	-38.06099701	-2.128479958	4.494330406	-29.44608688	1.0
42 	80.77799988	-4.887000084	-38.06099701	-2.098717928	4.369577408	-28.87962723	1.0
[LeftHandPinky2]
39 	36	0	0	-0.3491913676	1.989538908	-19.90737724	1.0
40 	36	0	0	-0.3331552148	1.944737315	-19.44024658	1.0
41 	36	0	0	-0.3164553344	1.896785855	-18.94211197	1.0
42 	36	0	0	-0.3083385825	1.872976184	-18.69530487	1.0
[LeftHandPinky3]
39 	21.14200211	0	0	-0.3186224103	1.903073668	-19.00738907	1.0
40 	21.14200211	0	0	-0.3032914698	1.857991219	-18.54026794	1.0
41 	21.14200211	0	0	-0.2873415649	1.809773445	-18.04183769	1.0
42 	21.14200211	0	0	-0.2796003819	1.78584826	-17.79510498	1.0
[LeftHandPinky4]
39 	19.75699997	0	0	0	0	0	1.0
40 	19.75699997	0	0	0	0	0	1.0
41 	19.75699997	0	0	0	0	0	1.0
42 	19.75699997	0	0	0	0	0	1.0
[RightShoulder]
39 	-45.70000076	109.4620056	-26.28000069	4.46729517	11.71336746	15.87195969	1.0
40 	-45.70000076	109.4620056	-26.28000069	4.485491276	11.8075037	15.75692463	1.0
41 	-45.70000076	109.4620056	-26.28000069	4.502283573	11.87550831	15.73884106	1.0
42 	-45.70000076	109.4620056	-26.28000069	4.538808823	11.99193573	15.83256149	1.0
[RightArm]
39 	-105.9280014	-5.248000145	-22.32099915	-1.993385434	1.882745624	56.88220978	1.0
40 	-105.9280014	-5.248000145	-22.32099915	4.638003349	2.252563238	57.72638321	1.0
41 	-105.9280014	-5.248000145	-22.32099915	12.03958607	2.549721956	58.63588333	1.0
42 	-105.9280014	-5.248000145	-22.32099915	19.62050438	2.556674004	59.45165253	1.0
[RightForeArm]
39 	-278.414978	0	0	3.309558451e-06	5.699746132	-3.595854878e-06	1.0
40 	-278.414978	0	0	6.979729505e-07	5.871850014	4.987475222e-06	1.0
41 	-278.414978	0	0	-4.843781426e-06	6.150949001	-3.566218993e-06	1.0
42 	-278.414978	0	0	-7.150993042e-06	6.510749817	1.545559826e-06	1.0
[RightHand]
39 	-283.2879944	0	0.0009999999311	-39.84109497	4.61867857	-5.076031685	1.0
40 	-283.2879944	0	0.0009999999311	-34.18365097	3.860191822	-1.805501342	1.0
41 	-283.2879944	0	0.0009999999311	-28.96409035	3.340875387	2.83405447	1.0
42 	-283.2879944	0	0.0009999999311	-25.00147629	2.750862598	6.349875927	1.0
[RightHandPinky1]
39 	-80.76699829	-4.885000229	-38.06000137	-2.397866726	-4.904713631	37.5414505	1.0
40 	-80.76699829	-4.885000229	-38.06000137	-1.599399447	-5.043570042	27.55301666	1.0
41 	-80.76699829	-4.885000229	-38.06000137	-1.277932882	-5.060694695	22.57044601	1.0
42 	-80.76699829	-4.885000229	-38.06000137	-1.615358353	-5.449772835	26.8273735	1.0
[RightHandPinky2]
39 	-36	0	0.0009999999311	-0.3098460436	-1.666980624	21.07797813	1.0
40 	-36	0	0.0009999999311	-0.3077348471	-1.661467433	21.00485802	1.0
41 	-36	0	0.0009999999311	-0.3118929267	-1.672267079	21.14786148	1.0
42 	-36	0	0.0009999999311	-0.3180754781	-1.688122034	21.35814667	1.0
[RightHandPinky3]
39 	-21.14200211	0	0	-0.284466356	-1.599497795	20.16733742	1.0
40 	-21.14200211	0	0	-0.2827320099	-1.594798207	20.10544014	1.0
41 	-21.14200211	0	0	-0.2867087722	-1.605603099	20.24771881	1.0
42 	-21.14200211	0	0	-0.2926157117	-1.621452928	20.45678711	1.0
[RightHandPinky4]
39 	-19.75699997	0	0	0	0	0	1.0
40 	-19.75699997	0	0	0	0	0	1.0
41 	-19.75699997	0	0	0	0	0	1.0
42 	-19.75699997	0	0	0	0	0	1.0
[RightHandRing1]
39 	-91.03599548	-0.4390000105	-18.65100098	-1.94054842	-0.6963477731	32.9709053	1.0
40 	-91.03599548	-0.4390000105	-18.65100098	-1.474015474	-0.2524629235	26.77866364	1.0
41 	-91.03599548	-0.4390000105	-18.65100098	-1.217854619	-0.1710683554	23.14668083	1.0
42 	-91.03599548	-0.4390000105	-18.65100098	-1.344320774	-0.7855358124	24.90687561	1.0
[RightHandRing2]
39 	-31.54000092	0	0	-0.3943140805	-1.871540666	23.79331207	1.0
40 	-31.54000092	0	0	-0.3942009807	-1.871293068	23.79001045	1.0
41 	-31.54000092	0	0	-0.4594039321	-2.012619257	25.71365356	1.0
42 	-31.54000092	0	0	-0.5404816866	-2.168840408	27.88987732	1.0
[RightHandRing3]
39 	-29.37700081	0	0	-0.3011782765	-1.644278884	20.75782776	1.0
40 	-29.37700081	0	0	-0.3010878563	-1.64402914	20.75463295	1.0
41 	-29.37700081	0	0	-0.358624965	-1.788477659	22.67599487	1.0
42 	-29.37700081	0	0	-0.4312065244	-1.948572993	24.84909821	1.0
[RightHandRing4]
39 	-26.47500038	0	0	0	0	0	1.0
40 	-26.47500038	0	0	0	0	0	1.0
41 	-26.47500038	0	0	0	0	0	1.0
42 	-26.47500038	0	0	0	0	0	1.0
[RightHandMiddle1]
39 	-95.32500458	0	0	-0.6688818336	-3.573530674	14.4435358	1.0
40 	-95.32500458	0	0	-0.3057718873	-3.363868952	7.820000172	1.0
41 	-95.32500458	0	0	-0.1564190686	-2.832654715	4.738551617	1.0
42 	-95.32500458	0	0	-0.327142179	-3.033895731	8.060862541	1.0
[RightHandMiddle2]
39 	-36.98199844	0	0	-0.1764381975	-1.26738441	15.8518362	1.0
40 	-36.98199844	0	0	-0.1732456684	-1.256021976	15.70608616	1.0
41 	-36.98199844	0	0	-0.1680999547	-1.237597346	15.46974659	1.0
42 	-36.98199844	0	0	-0.1708755046	-1.24753809	15.5972271	1.0
[RightHandMiddle3]
39 	-29.50900078	0	0	-0.1992907822	-1.347201228	16.85334015	1.0
40 	-29.50900078	0	0	-0.1958653033	-1.335860968	16.70705414	1.0
41 	-29.50900078	0	0	-0.1904156804	-1.317568541	16.47127151	1.0
42 	-29.50900078	0	0	-0.1933583319	-1.327450991	16.59862137	1.0
[RightHandMiddle4]
39 	-28.3390007	0	0.0009999999311	0	0	0	1.0
40 	-28.3390007	0	0.0009999999311	0	0	0	1.0
41 	-28.3390007	0	0.0009999999311	0	0	0	1.0
42 	-28.3390007	0	0.0009999999311	0	0	0	1.0
[RightHandIndex1]
39 	-91.08300018	-5.167999744	22.60099792	0.7634596229	-0.0864880085	0.5685344338	1.0
40 	-91.08300018	-5.167999744	22.60099792	0.7802126408	1.680746436	-4.845294952	1.0
41 	-91.08300018	-5.167999744	22.60099792	0.7264760733	2.584717751	-6.083025932	1.0
42 	-91.08300018	-5.167999744	22.60099792	0.5994695425	1.420983791	-0.5857839584	1.0
[RightHandIndex2]
39 	-36.76399994	0	0	-0.1503424942	-1.171522737	14.62462044	1.0
40 	-36.76399994	0	0	-0.1552326679	-1.190155506	14.86250687	1.0
41 	-36.76399994	0	0	-0.1561146677	-1.193420053	14.90425491	1.0
42 	-36.76399994	0	0	-0.1632759571	-1.219772816	15.24156666	1.0
[RightHandIndex3]
39 	-28.83100128	0	0	-0.01949034072	-0.4248344302	5.252602577	1.0
40 	-28.83100128	0	0	-0.02138766833	-0.444971323	5.502430916	1.0
41 	-28.83100128	0	0	-0.0217456352	-0.4487609565	5.549405098	1.0
42 	-28.83100128	0	0	-0.02448264882	-0.4754869044	5.881156445	1.0
[RightHandIndex4]
39 	-23.92700005	0	0	0	0	0	1.0
40 	-23.92700005	0	0	0	0	0	1.0
41 	-23.92700005	0	0	0	0	0	1.0
42 	-23.92700005	0	0	0	0	0	1.0
[RightHandThumb1]
39 	-24.64799881	-15.72700024	26.82600021	-3.483774185	5.111617565	-2.731134892	1.0
40 	-24.64799881	-15.72700024	26.82600021	-2.716256618	3.666581392	-4.463159084	1.0
41 	-24.64799881	-15.72700024	26.82600021	-2.920744181	2.200813532	-6.539264679	1.0
42 	-24.64799881	-15.72700024	26.82600021	-4.769373894	0.8022598028	-7.498247147	1.0
[RightHandThumb2]
39 	-32.29800034	-18.64699936	18.64699936	22.11215973	-25.2179966	-20.45751572	1.0
40 	-32.29800034	-18.64699936	18.64699936	21.99448013	-25.79205322	-18.61691475	1.0
41 	-32.29800034	-18.64699936	18.64699936	21.99292183	-25.70199966	-18.81212044	1.0
42 	-32.29800034	-18.64699936	18.64699936	22.11756134	-24.68369293	-21.81455994	1.0
[RightHandThumb3]
39 	-26.52600098	-15.31399918	15.31399918	-12.28369045	-3.235596895	-6.660829544	1.0
40 	-26.52600098	-15.31399918	15.31399918	-12.30749607	-3.090681553	-7.256106377	1.0
41 	-26.52600098	-15.31399918	15.31399918	-12.57252789	-3.517906189	-7.853788376	1.0
42 	-26.52600098	-15.31399918	15.31399918	-13.25524139	-4.847331047	-8.631048203	1.0
[RightHandThumb4]
39 	-19.54599953	-11.28499985	11.28499985	0	0	0	1.0
40 	-19.54599953	-11.28499985	11.28499985	0	0	0	1.0
41 	-19.54599953	-11.28499985	11.28499985	0	0	0	1.0
42 	-19.54599953	-11.28499985	11.28499985	0	0	0	1.0
[LeftUpLeg]
39 	82.07800293	-67.51699829	-15.99599934	-10.80540562	15.72415066	13.48509026	1.0
40 	82.07800293	-67.51699829	-15.99599934	-10.92913151	15.83668423	13.23268223	1.0
41 	82.07800293	-67.51699829	-15.99599934	-11.06734085	15.96445942	12.98386765	1.0
42 	82.07800293	-67.51699829	-15.99599934	-11.25756168	16.11267281	12.74088383	1.0
[LeftLeg]
39 	0	-443.7049866	2.845999956	39.14382172	-6.175836086	6.839947224	1.0
40 	0	-443.7049866	2.845999956	38.14784622	-5.675616264	6.830018997	1.0
41 	0	-443.7049866	2.845999956	37.0006218	-5.170395851	6.797853947	1.0
42 	0	-443.7049866	2.845999956	35.76150513	-4.68047905	6.719298363	1.0
[LeftFoot]
39 	0	-444.2789917	-29.8219986	-13.68898487	-7.976613998	-8.784995079	1.0
40 	0	-444.2789917	-29.8219986	-12.93750858	-7.80886507	-8.880803108	1.0
41 	0	-444.2789917	-29.8219986	-12.09638214	-7.61436367	-8.949707031	1.0
42 	0	-444.2789917	-29.8219986	-11.17287827	-7.420773029	-8.986124039	1.0
[LeftToeBase]
39 	0	-87.28699493	107.1060028	-5.759169102	-7.179253885e-07	-8.524748978e-07	1.0
40 	0	-87.28699493	107.1060028	-5.774949551	-4.244047432e-06	-1.972535301e-06	1.0
41 	0	-87.28699493	107.1060028	-5.79036665	6.548477359e-06	4.154492672e-06	1.0
42 	0	-87.28699493	107.1060028	-5.804189205	8.369986062e-06	3.000876404e-06	1.0
[RightUpLeg]
39 	-82.07800293	-67.51699829	-15.99599934	1.120405674	-11.7908392	7.00611639	1.0
40 	-82.07800293	-67.51699829	-15.99599934	0.6090242863	-11.73188972	6.948002338	1.0
41 	-82.07800293	-67.51699829	-15.99599934	0.09034578502	-11.61663628	6.978765488	1.0
42 	-82.07800293	-67.51699829	-15.99599934	-0.4448569119	-11.51727772	7.029314041	1.0
[RightLeg]
39 	0	-443.7049866	2.861999989	35.6006279	-6.176402569	-8.657315254	1.0
40 	0	-443.7049866	2.861999989	34.90026855	-6.201907635	-8.748020172	1.0
41 	0	-443.7049866	2.861999989	34.00367737	-6.213385582	-8.863584518	1.0
42 	0	-443.7049866	2.861999989	32.98424149	-6.269180775	-8.932489395	1.0
[RightFoot]
39 	0	-444.2770081	-29.83799934	-21.64279938	-11.93397331	8.1482687	1.0
40 	0	-444.2770081	-29.83799934	-20.88181686	-11.55566502	7.804020882	1.0
41 	0	-444.2770081	-29.83799934	-19.98771667	-11.24688339	7.477333069	1.0
42 	0	-444.2770081	-29.83799934	-19.00670815	-10.92845535	7.119602203	1.0
[RightToeBase]
39 	0	-87.28699493	107.1060028	-8.578025818	6.287415545e-06	-3.109308182e-06	1.0
40 	0	-87.28699493	107.1060028	-8.579469681	9.228094314e-06	3.025461126e-07	1.0
41 	0	-87.28699493	107.1060028	-8.557595253	-2.902302413e-06	-1.939459253e-06	1.0
42 	0	-87.28699493	107.1060028	-8.525730133	2.266759793e-07	-1.048347372e-06	1.0
[EndOfFile]
